FILE "Rationality꞉ From AI to Zombies [B076ZTMJN3].m4b" MP3
TRACK 1 AUDIO
  TITLE "Opening Credits"
  INDEX 01 0:00:00
TRACK 2 AUDIO
  TITLE "Chapter 1"
  INDEX 01 0:16:25
TRACK 3 AUDIO
  TITLE "Chapter 2"
  INDEX 01 21:38:48
TRACK 4 AUDIO
  TITLE "Chapter 3"
  INDEX 01 29:55:58
TRACK 5 AUDIO
  TITLE "Chapter 4"
  INDEX 01 35:10:58
TRACK 6 AUDIO
  TITLE "Chapter 5"
  INDEX 01 42:42:55
TRACK 7 AUDIO
  TITLE "Chapter 6"
  INDEX 01 49:53:45
TRACK 8 AUDIO
  TITLE "Chapter 7"
  INDEX 01 54:48:20
TRACK 9 AUDIO
  TITLE "Chapter 8"
  INDEX 01 63:30:39
TRACK 10 AUDIO
  TITLE "Chapter 9"
  INDEX 01 70:10:45
TRACK 11 AUDIO
  TITLE "Chapter 10"
  INDEX 01 74:55:07
TRACK 12 AUDIO
  TITLE "Chapter 11"
  INDEX 01 80:38:60
TRACK 13 AUDIO
  TITLE "Chapter 12"
  INDEX 01 86:22:23
TRACK 14 AUDIO
  TITLE "Chapter 13"
  INDEX 01 93:25:39
TRACK 15 AUDIO
  TITLE "Chapter 14"
  INDEX 01 104:59:59
TRACK 16 AUDIO
  TITLE "Chapter 15"
  INDEX 01 114:24:34
TRACK 17 AUDIO
  TITLE "Chapter 16"
  INDEX 01 116:43:20
TRACK 18 AUDIO
  TITLE "Chapter 17"
  INDEX 01 124:35:66
TRACK 19 AUDIO
  TITLE "Chapter 18"
  INDEX 01 134:09:66
TRACK 20 AUDIO
  TITLE "Chapter 19"
  INDEX 01 138:56:55
TRACK 21 AUDIO
  TITLE "Chapter 20"
  INDEX 01 142:12:01
TRACK 22 AUDIO
  TITLE "Chapter 21"
  INDEX 01 147:07:35
TRACK 23 AUDIO
  TITLE "Chapter 22"
  INDEX 01 152:50:42
TRACK 24 AUDIO
  TITLE "Chapter 23"
  INDEX 01 159:20:21
TRACK 25 AUDIO
  TITLE "Chapter 24"
  INDEX 01 166:21:65
TRACK 26 AUDIO
  TITLE "Chapter 25"
  INDEX 01 175:37:39
TRACK 27 AUDIO
  TITLE "Chapter 26"
  INDEX 01 181:17:03
TRACK 28 AUDIO
  TITLE "Chapter 27"
  INDEX 01 191:36:13
TRACK 29 AUDIO
  TITLE "Chapter 28"
  INDEX 01 195:43:18
TRACK 30 AUDIO
  TITLE "Chapter 29"
  INDEX 01 200:44:30
TRACK 31 AUDIO
  TITLE "Chapter 30"
  INDEX 01 205:52:47
TRACK 32 AUDIO
  TITLE "Chapter 31"
  INDEX 01 209:57:62
TRACK 33 AUDIO
  TITLE "Chapter 32"
  INDEX 01 214:16:72
TRACK 34 AUDIO
  TITLE "Chapter 33"
  INDEX 01 221:28:25
TRACK 35 AUDIO
  TITLE "Chapter 34"
  INDEX 01 225:59:06
TRACK 36 AUDIO
  TITLE "Chapter 35"
  INDEX 01 234:34:39
TRACK 37 AUDIO
  TITLE "Chapter 36"
  INDEX 01 240:40:24
TRACK 38 AUDIO
  TITLE "Chapter 37"
  INDEX 01 247:41:09
TRACK 39 AUDIO
  TITLE "Chapter 38"
  INDEX 01 253:16:41
TRACK 40 AUDIO
  TITLE "Chapter 39"
  INDEX 01 259:50:72
TRACK 41 AUDIO
  TITLE "Chapter 40"
  INDEX 01 266:19:05
TRACK 42 AUDIO
  TITLE "Chapter 41"
  INDEX 01 273:29:07
TRACK 43 AUDIO
  TITLE "Chapter 42"
  INDEX 01 280:05:69
TRACK 44 AUDIO
  TITLE "Chapter 43"
  INDEX 01 283:10:60
TRACK 45 AUDIO
  TITLE "Chapter 44"
  INDEX 01 289:14:08
TRACK 46 AUDIO
  TITLE "Chapter 45"
  INDEX 01 292:20:10
TRACK 47 AUDIO
  TITLE "Chapter 46"
  INDEX 01 298:18:14
TRACK 48 AUDIO
  TITLE "Chapter 47"
  INDEX 01 305:55:54
TRACK 49 AUDIO
  TITLE "Chapter 48"
  INDEX 01 347:28:46
TRACK 50 AUDIO
  TITLE "Chapter 49"
  INDEX 01 361:44:48
TRACK 51 AUDIO
  TITLE "Chapter 50"
  INDEX 01 371:01:44
TRACK 52 AUDIO
  TITLE "Chapter 51"
  INDEX 01 377:35:16
TRACK 53 AUDIO
  TITLE "Chapter 52"
  INDEX 01 381:05:30
TRACK 54 AUDIO
  TITLE "Chapter 53"
  INDEX 01 385:23:24
TRACK 55 AUDIO
  TITLE "Chapter 54"
  INDEX 01 390:00:46
TRACK 56 AUDIO
  TITLE "Chapter 55"
  INDEX 01 399:12:38
TRACK 57 AUDIO
  TITLE "Chapter 56"
  INDEX 01 413:23:56
TRACK 58 AUDIO
  TITLE "Chapter 57"
  INDEX 01 419:07:20
TRACK 59 AUDIO
  TITLE "Chapter 58"
  INDEX 01 428:12:35
TRACK 60 AUDIO
  TITLE "Chapter 59"
  INDEX 01 438:09:31
TRACK 61 AUDIO
  TITLE "Chapter 60"
  INDEX 01 443:13:65
TRACK 62 AUDIO
  TITLE "Chapter 61"
  INDEX 01 446:57:11
TRACK 63 AUDIO
  TITLE "Chapter 62"
  INDEX 01 454:31:25
TRACK 64 AUDIO
  TITLE "Chapter 63"
  INDEX 01 458:46:74
TRACK 65 AUDIO
  TITLE "Chapter 64"
  INDEX 01 464:26:07
TRACK 66 AUDIO
  TITLE "Chapter 65"
  INDEX 01 470:55:40
TRACK 67 AUDIO
  TITLE "Chapter 66"
  INDEX 01 477:15:31
TRACK 68 AUDIO
  TITLE "Chapter 67"
  INDEX 01 489:27:51
TRACK 69 AUDIO
  TITLE "Chapter 68"
  INDEX 01 492:26:14
TRACK 70 AUDIO
  TITLE "Chapter 69"
  INDEX 01 499:59:72
TRACK 71 AUDIO
  TITLE "Chapter 70"
  INDEX 01 506:59:68
TRACK 72 AUDIO
  TITLE "Chapter 71"
  INDEX 01 512:18:05
TRACK 73 AUDIO
  TITLE "Chapter 72"
  INDEX 01 519:30:28
TRACK 74 AUDIO
  TITLE "Chapter 73"
  INDEX 01 524:09:33
TRACK 75 AUDIO
  TITLE "Chapter 74"
  INDEX 01 531:31:23
TRACK 76 AUDIO
  TITLE "Chapter 75"
  INDEX 01 538:06:21
TRACK 77 AUDIO
  TITLE "Chapter 76"
  INDEX 01 543:01:41
TRACK 78 AUDIO
  TITLE "Chapter 77"
  INDEX 01 547:22:68
TRACK 79 AUDIO
  TITLE "Chapter 78"
  INDEX 01 556:16:24
TRACK 80 AUDIO
  TITLE "Chapter 79"
  INDEX 01 561:40:45
TRACK 81 AUDIO
  TITLE "Chapter 80"
  INDEX 01 567:18:52
TRACK 82 AUDIO
  TITLE "Chapter 81"
  INDEX 01 575:18:07
TRACK 83 AUDIO
  TITLE "Chapter 82"
  INDEX 01 582:56:41
TRACK 84 AUDIO
  TITLE "Chapter 83"
  INDEX 01 584:06:19
TRACK 85 AUDIO
  TITLE "Chapter 84"
  INDEX 01 594:41:58
TRACK 86 AUDIO
  TITLE "Chapter 85"
  INDEX 01 598:21:68
TRACK 87 AUDIO
  TITLE "Chapter 86"
  INDEX 01 606:08:08
TRACK 88 AUDIO
  TITLE "Chapter 87"
  INDEX 01 609:17:65
TRACK 89 AUDIO
  TITLE "Chapter 88"
  INDEX 01 617:42:05
TRACK 90 AUDIO
  TITLE "Chapter 89"
  INDEX 01 622:26:73
TRACK 91 AUDIO
  TITLE "Chapter 90"
  INDEX 01 626:30:69
TRACK 92 AUDIO
  TITLE "Chapter 91"
  INDEX 01 630:16:67
TRACK 93 AUDIO
  TITLE "Chapter 92"
  INDEX 01 634:39:21
TRACK 94 AUDIO
  TITLE "Chapter 93"
  INDEX 01 639:03:64
TRACK 95 AUDIO
  TITLE "Chapter 94"
  INDEX 01 644:44:26
TRACK 96 AUDIO
  TITLE "Chapter 95"
  INDEX 01 650:30:38
TRACK 97 AUDIO
  TITLE "Chapter 96"
  INDEX 01 654:01:15
TRACK 98 AUDIO
  TITLE "Chapter 97"
  INDEX 01 656:24:15
TRACK 99 AUDIO
  TITLE "Chapter 98"
  INDEX 01 668:51:13
TRACK 100 AUDIO
  TITLE "Chapter 99"
  INDEX 01 676:39:67
TRACK 101 AUDIO
  TITLE "Chapter 100"
  INDEX 01 683:41:67
TRACK 102 AUDIO
  TITLE "Chapter 101"
  INDEX 01 686:23:03
TRACK 103 AUDIO
  TITLE "Chapter 102"
  INDEX 01 692:04:70
TRACK 104 AUDIO
  TITLE "Chapter 103"
  INDEX 01 698:03:47
TRACK 105 AUDIO
  TITLE "Chapter 104"
  INDEX 01 704:34:74
TRACK 106 AUDIO
  TITLE "Chapter 105"
  INDEX 01 713:14:62
TRACK 107 AUDIO
  TITLE "Chapter 106"
  INDEX 01 719:43:05
TRACK 108 AUDIO
  TITLE "Chapter 107"
  INDEX 01 725:36:70
TRACK 109 AUDIO
  TITLE "Chapter 108"
  INDEX 01 732:27:52
TRACK 110 AUDIO
  TITLE "Chapter 109"
  INDEX 01 738:37:69
TRACK 111 AUDIO
  TITLE "Chapter 110"
  INDEX 01 742:23:01
TRACK 112 AUDIO
  TITLE "Chapter 111"
  INDEX 01 753:31:52
TRACK 113 AUDIO
  TITLE "Chapter 112"
  INDEX 01 762:17:33
TRACK 114 AUDIO
  TITLE "Chapter 113"
  INDEX 01 769:33:35
TRACK 115 AUDIO
  TITLE "Chapter 114"
  INDEX 01 774:40:01
TRACK 116 AUDIO
  TITLE "Chapter 115"
  INDEX 01 781:15:69
TRACK 117 AUDIO
  TITLE "Chapter 116"
  INDEX 01 787:33:60
TRACK 118 AUDIO
  TITLE "Chapter 117"
  INDEX 01 796:37:60
TRACK 119 AUDIO
  TITLE "Chapter 118"
  INDEX 01 798:39:21
TRACK 120 AUDIO
  TITLE "Chapter 119"
  INDEX 01 809:58:38
TRACK 121 AUDIO
  TITLE "Chapter 120"
  INDEX 01 814:05:39
TRACK 122 AUDIO
  TITLE "Chapter 121"
  INDEX 01 821:52:39
TRACK 123 AUDIO
  TITLE "Chapter 122"
  INDEX 01 827:44:23
TRACK 124 AUDIO
  TITLE "Chapter 123"
  INDEX 01 836:16:26
TRACK 125 AUDIO
  TITLE "Chapter 124"
  INDEX 01 855:48:13
TRACK 126 AUDIO
  TITLE "Chapter 125"
  INDEX 01 861:01:34
TRACK 127 AUDIO
  TITLE "Chapter 126"
  INDEX 01 865:53:73
TRACK 128 AUDIO
  TITLE "Chapter 127"
  INDEX 01 868:26:54
TRACK 129 AUDIO
  TITLE "Chapter 128"
  INDEX 01 874:20:20
TRACK 130 AUDIO
  TITLE "Chapter 129"
  INDEX 01 874:53:11
TRACK 131 AUDIO
  TITLE "Chapter 130"
  INDEX 01 882:21:15
TRACK 132 AUDIO
  TITLE "Chapter 131"
  INDEX 01 888:10:53
TRACK 133 AUDIO
  TITLE "Chapter 132"
  INDEX 01 895:59:03
TRACK 134 AUDIO
  TITLE "Chapter 133"
  INDEX 01 912:39:65
TRACK 135 AUDIO
  TITLE "Chapter 134"
  INDEX 01 921:53:08
TRACK 136 AUDIO
  TITLE "Chapter 135"
  INDEX 01 932:09:73
TRACK 137 AUDIO
  TITLE "Chapter 136"
  INDEX 01 940:42:15
TRACK 138 AUDIO
  TITLE "Chapter 137"
  INDEX 01 949:50:63
TRACK 139 AUDIO
  TITLE "Chapter 138"
  INDEX 01 959:10:30
TRACK 140 AUDIO
  TITLE "Chapter 139"
  INDEX 01 971:48:08
TRACK 141 AUDIO
  TITLE "Chapter 140"
  INDEX 01 985:17:07
TRACK 142 AUDIO
  TITLE "Chapter 141"
  INDEX 01 997:33:65
TRACK 143 AUDIO
  TITLE "Chapter 142"
  INDEX 01 1003:16:55
TRACK 144 AUDIO
  TITLE "Chapter 143"
  INDEX 01 1009:42:38
TRACK 145 AUDIO
  TITLE "Chapter 144"
  INDEX 01 1019:40:31
TRACK 146 AUDIO
  TITLE "Chapter 145"
  INDEX 01 1027:18:45
TRACK 147 AUDIO
  TITLE "Chapter 146"
  INDEX 01 1035:32:22
TRACK 148 AUDIO
  TITLE "Chapter 147"
  INDEX 01 1047:21:08
TRACK 149 AUDIO
  TITLE "Chapter 148"
  INDEX 01 1054:05:00
TRACK 150 AUDIO
  TITLE "Chapter 149"
  INDEX 01 1065:19:44
TRACK 151 AUDIO
  TITLE "Chapter 150"
  INDEX 01 1079:42:05
TRACK 152 AUDIO
  TITLE "Chapter 151"
  INDEX 01 1087:30:24
TRACK 153 AUDIO
  TITLE "Chapter 152"
  INDEX 01 1099:41:38
TRACK 154 AUDIO
  TITLE "Chapter 153"
  INDEX 01 1121:00:11
TRACK 155 AUDIO
  TITLE "Chapter 154"
  INDEX 01 1127:41:49
TRACK 156 AUDIO
  TITLE "Chapter 155"
  INDEX 01 1141:02:39
TRACK 157 AUDIO
  TITLE "Chapter 156"
  INDEX 01 1149:53:38
TRACK 158 AUDIO
  TITLE "Chapter 157"
  INDEX 01 1162:38:56
TRACK 159 AUDIO
  TITLE "Chapter 158"
  INDEX 01 1165:25:31
TRACK 160 AUDIO
  TITLE "Chapter 159"
  INDEX 01 1173:02:74
TRACK 161 AUDIO
  TITLE "Chapter 160"
  INDEX 01 1179:26:30
TRACK 162 AUDIO
  TITLE "Chapter 161"
  INDEX 01 1187:56:02
TRACK 163 AUDIO
  TITLE "Chapter 162"
  INDEX 01 1191:38:67
TRACK 164 AUDIO
  TITLE "Chapter 163"
  INDEX 01 1196:29:14
TRACK 165 AUDIO
  TITLE "Chapter 164"
  INDEX 01 1205:00:51
TRACK 166 AUDIO
  TITLE "Chapter 165"
  INDEX 01 1213:59:63
TRACK 167 AUDIO
  TITLE "Chapter 166"
  INDEX 01 1225:48:07
TRACK 168 AUDIO
  TITLE "Chapter 167"
  INDEX 01 1236:20:25
TRACK 169 AUDIO
  TITLE "Chapter 168"
  INDEX 01 1246:21:34
TRACK 170 AUDIO
  TITLE "Chapter 169"
  INDEX 01 1254:03:25
TRACK 171 AUDIO
  TITLE "Chapter 170"
  INDEX 01 1262:46:01
TRACK 172 AUDIO
  TITLE "Chapter 171"
  INDEX 01 1268:51:58
TRACK 173 AUDIO
  TITLE "Chapter 172"
  INDEX 01 1275:13:00
TRACK 174 AUDIO
  TITLE "Chapter 173"
  INDEX 01 1284:48:54
TRACK 175 AUDIO
  TITLE "Chapter 174"
  INDEX 01 1292:41:15
TRACK 176 AUDIO
  TITLE "Chapter 175"
  INDEX 01 1297:35:44
TRACK 177 AUDIO
  TITLE "Chapter 176"
  INDEX 01 1303:49:49
TRACK 178 AUDIO
  TITLE "Chapter 177"
  INDEX 01 1312:11:19
TRACK 179 AUDIO
  TITLE "Chapter 178"
  INDEX 01 1319:04:67
TRACK 180 AUDIO
  TITLE "Chapter 179"
  INDEX 01 1328:29:45
TRACK 181 AUDIO
  TITLE "Chapter 180"
  INDEX 01 1345:18:52
TRACK 182 AUDIO
  TITLE "Chapter 181"
  INDEX 01 1360:17:26
TRACK 183 AUDIO
  TITLE "Chapter 182"
  INDEX 01 1360:45:30
TRACK 184 AUDIO
  TITLE "Chapter 183"
  INDEX 01 1366:41:58
TRACK 185 AUDIO
  TITLE "Chapter 184"
  INDEX 01 1387:10:22
TRACK 186 AUDIO
  TITLE "Chapter 185"
  INDEX 01 1398:59:29
TRACK 187 AUDIO
  TITLE "Chapter 186"
  INDEX 01 1406:31:50
TRACK 188 AUDIO
  TITLE "Chapter 187"
  INDEX 01 1413:24:60
TRACK 189 AUDIO
  TITLE "Chapter 188"
  INDEX 01 1418:35:46
TRACK 190 AUDIO
  TITLE "Chapter 189"
  INDEX 01 1430:09:60
TRACK 191 AUDIO
  TITLE "Chapter 190"
  INDEX 01 1443:24:39
TRACK 192 AUDIO
  TITLE "Chapter 191"
  INDEX 01 1457:12:03
TRACK 193 AUDIO
  TITLE "Chapter 192"
  INDEX 01 1478:06:22
TRACK 194 AUDIO
  TITLE "Chapter 193"
  INDEX 01 1485:18:24
TRACK 195 AUDIO
  TITLE "Chapter 194"
  INDEX 01 1494:21:60
TRACK 196 AUDIO
  TITLE "Chapter 195"
  INDEX 01 1505:43:65
TRACK 197 AUDIO
  TITLE "Chapter 196"
  INDEX 01 1510:07:00
TRACK 198 AUDIO
  TITLE "Chapter 197"
  INDEX 01 1516:16:70
TRACK 199 AUDIO
  TITLE "Chapter 198"
  INDEX 01 1519:36:50
TRACK 200 AUDIO
  TITLE "Chapter 199"
  INDEX 01 1531:08:19
TRACK 201 AUDIO
  TITLE "Chapter 200"
  INDEX 01 1531:31:63
TRACK 202 AUDIO
  TITLE "Chapter 201"
  INDEX 01 1539:47:27
TRACK 203 AUDIO
  TITLE "Chapter 202"
  INDEX 01 1544:42:40
TRACK 204 AUDIO
  TITLE "Chapter 203"
  INDEX 01 1547:33:43
TRACK 205 AUDIO
  TITLE "Chapter 204"
  INDEX 01 1556:18:18
TRACK 206 AUDIO
  TITLE "Chapter 205"
  INDEX 01 1563:41:53
TRACK 207 AUDIO
  TITLE "Chapter 206"
  INDEX 01 1567:58:73
TRACK 208 AUDIO
  TITLE "Chapter 207"
  INDEX 01 1577:21:20
TRACK 209 AUDIO
  TITLE "Chapter 208"
  INDEX 01 1580:51:69
TRACK 210 AUDIO
  TITLE "Chapter 209"
  INDEX 01 1589:25:69
TRACK 211 AUDIO
  TITLE "Chapter 210"
  INDEX 01 1594:10:38
TRACK 212 AUDIO
  TITLE "Chapter 211"
  INDEX 01 1601:19:59
TRACK 213 AUDIO
  TITLE "Chapter 212"
  INDEX 01 1608:19:56
TRACK 214 AUDIO
  TITLE "Chapter 213"
  INDEX 01 1611:56:22
TRACK 215 AUDIO
  TITLE "Chapter 214"
  INDEX 01 1615:40:59
TRACK 216 AUDIO
  TITLE "Chapter 215"
  INDEX 01 1621:47:25
TRACK 217 AUDIO
  TITLE "Chapter 216"
  INDEX 01 1626:31:13
TRACK 218 AUDIO
  TITLE "Chapter 217"
  INDEX 01 1634:54:26
TRACK 219 AUDIO
  TITLE "Chapter 218"
  INDEX 01 1643:25:39
TRACK 220 AUDIO
  TITLE "Chapter 219"
  INDEX 01 1650:34:01
TRACK 221 AUDIO
  TITLE "Chapter 220"
  INDEX 01 1656:55:32
TRACK 222 AUDIO
  TITLE "Chapter 221"
  INDEX 01 1665:49:12
TRACK 223 AUDIO
  TITLE "Chapter 222"
  INDEX 01 1676:50:17
TRACK 224 AUDIO
  TITLE "Chapter 223"
  INDEX 01 1680:28:13
TRACK 225 AUDIO
  TITLE "Chapter 224"
  INDEX 01 1686:35:45
TRACK 226 AUDIO
  TITLE "Chapter 225"
  INDEX 01 1695:57:19
TRACK 227 AUDIO
  TITLE "Chapter 226"
  INDEX 01 1708:53:13
TRACK 228 AUDIO
  TITLE "Chapter 227"
  INDEX 01 1754:09:71
TRACK 229 AUDIO
  TITLE "Chapter 228"
  INDEX 01 1769:56:50
TRACK 230 AUDIO
  TITLE "Chapter 229"
  INDEX 01 1790:06:67
TRACK 231 AUDIO
  TITLE "Chapter 230"
  INDEX 01 1807:14:74
TRACK 232 AUDIO
  TITLE "Chapter 231"
  INDEX 01 1818:03:66
TRACK 233 AUDIO
  TITLE "Chapter 232"
  INDEX 01 1826:09:69
TRACK 234 AUDIO
  TITLE "Chapter 233"
  INDEX 01 1841:50:25
TRACK 235 AUDIO
  TITLE "Chapter 234"
  INDEX 01 1848:12:30
TRACK 236 AUDIO
  TITLE "Chapter 235"
  INDEX 01 1860:35:46
TRACK 237 AUDIO
  TITLE "Chapter 236"
  INDEX 01 1860:58:28
TRACK 238 AUDIO
  TITLE "Chapter 237"
  INDEX 01 1861:18:33
TRACK 239 AUDIO
  TITLE "Chapter 238"
  INDEX 01 1861:39:01
TRACK 240 AUDIO
  TITLE "Chapter 239"
  INDEX 01 1868:01:43
TRACK 241 AUDIO
  TITLE "Chapter 240"
  INDEX 01 1890:59:44
TRACK 242 AUDIO
  TITLE "Chapter 241"
  INDEX 01 1906:12:55
TRACK 243 AUDIO
  TITLE "Chapter 242"
  INDEX 01 1915:59:59
TRACK 244 AUDIO
  TITLE "Chapter 243"
  INDEX 01 1926:59:52
TRACK 245 AUDIO
  TITLE "Chapter 244"
  INDEX 01 1944:29:70
TRACK 246 AUDIO
  TITLE "Chapter 245"
  INDEX 01 1964:08:50
TRACK 247 AUDIO
  TITLE "Chapter 246"
  INDEX 01 1973:37:59
TRACK 248 AUDIO
  TITLE "Chapter 247"
  INDEX 01 1981:35:35
TRACK 249 AUDIO
  TITLE "Chapter 248"
  INDEX 01 2008:30:03
TRACK 250 AUDIO
  TITLE "Chapter 249"
  INDEX 01 2028:53:41
TRACK 251 AUDIO
  TITLE "Chapter 250"
  INDEX 01 2039:08:35
TRACK 252 AUDIO
  TITLE "Chapter 251"
  INDEX 01 2046:58:26
TRACK 253 AUDIO
  TITLE "Chapter 252"
  INDEX 01 2056:31:52
TRACK 254 AUDIO
  TITLE "Chapter 253"
  INDEX 01 2065:59:45
TRACK 255 AUDIO
  TITLE "Chapter 254"
  INDEX 01 2077:15:12
TRACK 256 AUDIO
  TITLE "Chapter 255"
  INDEX 01 2089:04:15
TRACK 257 AUDIO
  TITLE "Chapter 256"
  INDEX 01 2092:56:69
TRACK 258 AUDIO
  TITLE "Chapter 257"
  INDEX 01 2101:53:01
TRACK 259 AUDIO
  TITLE "Chapter 258"
  INDEX 01 2120:03:60
TRACK 260 AUDIO
  TITLE "Chapter 259"
  INDEX 01 2141:41:70
TRACK 261 AUDIO
  TITLE "Chapter 260"
  INDEX 01 2153:02:52
TRACK 262 AUDIO
  TITLE "Chapter 261"
  INDEX 01 2164:15:39
TRACK 263 AUDIO
  TITLE "Chapter 262"
  INDEX 01 2173:12:20
TRACK 264 AUDIO
  TITLE "Chapter 263"
  INDEX 01 2179:55:66
TRACK 265 AUDIO
  TITLE "Chapter 264"
  INDEX 01 2186:46:06
TRACK 266 AUDIO
  TITLE "Chapter 265"
  INDEX 01 2190:05:09
TRACK 267 AUDIO
  TITLE "Chapter 266"
  INDEX 01 2194:29:27
TRACK 268 AUDIO
  TITLE "Chapter 267"
  INDEX 01 2202:25:38
TRACK 269 AUDIO
  TITLE "Chapter 268"
  INDEX 01 2215:32:36
TRACK 270 AUDIO
  TITLE "Chapter 269"
  INDEX 01 2225:31:73
TRACK 271 AUDIO
  TITLE "Chapter 270"
  INDEX 01 2231:48:17
TRACK 272 AUDIO
  TITLE "Chapter 271"
  INDEX 01 2251:32:61
TRACK 273 AUDIO
  TITLE "Chapter 272"
  INDEX 01 2258:39:38
TRACK 274 AUDIO
  TITLE "Chapter 273"
  INDEX 01 2269:28:48
TRACK 275 AUDIO
  TITLE "Chapter 274"
  INDEX 01 2274:53:23
TRACK 276 AUDIO
  TITLE "Chapter 275"
  INDEX 01 2282:36:34
TRACK 277 AUDIO
  TITLE "Chapter 276"
  INDEX 01 2294:03:47
TRACK 278 AUDIO
  TITLE "Chapter 277"
  INDEX 01 2296:17:52
TRACK 279 AUDIO
  TITLE "Chapter 278"
  INDEX 01 2304:42:06
TRACK 280 AUDIO
  TITLE "Chapter 279"
  INDEX 01 2315:48:54
TRACK 281 AUDIO
  TITLE "Chapter 280"
  INDEX 01 2324:00:00
TRACK 282 AUDIO
  TITLE "Chapter 281"
  INDEX 01 2343:55:21
TRACK 283 AUDIO
  TITLE "Chapter 282"
  INDEX 01 2355:25:28
TRACK 284 AUDIO
  TITLE "Chapter 283"
  INDEX 01 2365:55:60
TRACK 285 AUDIO
  TITLE "Chapter 284"
  INDEX 01 2374:18:73
TRACK 286 AUDIO
  TITLE "Chapter 285"
  INDEX 01 2393:25:22
TRACK 287 AUDIO
  TITLE "Chapter 286"
  INDEX 01 2405:38:12
TRACK 288 AUDIO
  TITLE "Chapter 287"
  INDEX 01 2421:15:31
TRACK 289 AUDIO
  TITLE "Chapter 288"
  INDEX 01 2425:09:45
TRACK 290 AUDIO
  TITLE "Chapter 289"
  INDEX 01 2430:22:01
TRACK 291 AUDIO
  TITLE "Chapter 290"
  INDEX 01 2437:07:53
TRACK 292 AUDIO
  TITLE "Chapter 291"
  INDEX 01 2450:19:62
TRACK 293 AUDIO
  TITLE "Chapter 292"
  INDEX 01 2456:49:31
TRACK 294 AUDIO
  TITLE "Chapter 293"
  INDEX 01 2474:31:09
TRACK 295 AUDIO
  TITLE "Chapter 294"
  INDEX 01 2483:20:40
TRACK 296 AUDIO
  TITLE "Chapter 295"
  INDEX 01 2499:50:09
TRACK 297 AUDIO
  TITLE "Chapter 296"
  INDEX 01 2512:20:66
TRACK 298 AUDIO
  TITLE "Chapter 297"
  INDEX 01 2523:46:70
TRACK 299 AUDIO
  TITLE "Chapter 298"
  INDEX 01 2544:12:43
TRACK 300 AUDIO
  TITLE "Chapter 299"
  INDEX 01 2558:30:31
TRACK 301 AUDIO
  TITLE "Chapter 300"
  INDEX 01 2563:38:40
TRACK 302 AUDIO
  TITLE "Chapter 301"
  INDEX 01 2572:10:58
TRACK 303 AUDIO
  TITLE "Chapter 302"
  INDEX 01 2581:06:55
TRACK 304 AUDIO
  TITLE "Chapter 303"
  INDEX 01 2592:52:05
TRACK 305 AUDIO
  TITLE "Chapter 304"
  INDEX 01 2599:29:09
TRACK 306 AUDIO
  TITLE "Chapter 305"
  INDEX 01 2613:19:63
TRACK 307 AUDIO
  TITLE "Chapter 306"
  INDEX 01 2626:27:69
TRACK 308 AUDIO
  TITLE "Chapter 307"
  INDEX 01 2634:32:43
TRACK 309 AUDIO
  TITLE "Chapter 308"
  INDEX 01 2645:17:29
TRACK 310 AUDIO
  TITLE "Chapter 309"
  INDEX 01 2652:26:06
TRACK 311 AUDIO
  TITLE "Chapter 310"
  INDEX 01 2664:11:72
TRACK 312 AUDIO
  TITLE "Chapter 311"
  INDEX 01 2685:57:43
TRACK 313 AUDIO
  TITLE "Chapter 312"
  INDEX 01 2700:44:05
TRACK 314 AUDIO
  TITLE "Chapter 313"
  INDEX 01 2707:19:37
TRACK 315 AUDIO
  TITLE "Chapter 314"
  INDEX 01 2710:52:63
TRACK 316 AUDIO
  TITLE "Chapter 315"
  INDEX 01 2717:58:10
TRACK 317 AUDIO
  TITLE "Chapter 316"
  INDEX 01 2722:15:21
TRACK 318 AUDIO
  TITLE "Chapter 317"
  INDEX 01 2736:36:38
TRACK 319 AUDIO
  TITLE "Chapter 318"
  INDEX 01 2746:18:19
TRACK 320 AUDIO
  TITLE "Chapter 319"
  INDEX 01 2768:43:39
TRACK 321 AUDIO
  TITLE "Chapter 320"
  INDEX 01 2787:06:28
TRACK 322 AUDIO
  TITLE "Chapter 321"
  INDEX 01 2793:27:07
TRACK 323 AUDIO
  TITLE "Chapter 322"
  INDEX 01 2802:22:06
TRACK 324 AUDIO
  TITLE "Chapter 323"
  INDEX 01 2807:12:00
TRACK 325 AUDIO
  TITLE "Chapter 324"
  INDEX 01 2812:41:48
TRACK 326 AUDIO
  TITLE "Chapter 325"
  INDEX 01 2818:54:20
TRACK 327 AUDIO
  TITLE "Chapter 326"
  INDEX 01 2837:43:20
TRACK 328 AUDIO
  TITLE "Chapter 327"
  INDEX 01 2842:19:19
TRACK 329 AUDIO
  TITLE "Chapter 328"
  INDEX 01 2851:32:69
TRACK 330 AUDIO
  TITLE "Chapter 329"
  INDEX 01 2861:12:12
TRACK 331 AUDIO
  TITLE "Chapter 330"
  INDEX 01 2870:48:01
TRACK 332 AUDIO
  TITLE "Chapter 331"
  INDEX 01 2878:44:12
TRACK 333 AUDIO
  TITLE "Chapter 332"
  INDEX 01 2885:23:55
TRACK 334 AUDIO
  TITLE "Chapter 333"
  INDEX 01 2893:39:60
TRACK 335 AUDIO
  TITLE "Chapter 334"
  INDEX 01 2902:24:39
TRACK 336 AUDIO
  TITLE "Chapter 335"
  INDEX 01 2908:36:73
TRACK 337 AUDIO
  TITLE "Chapter 336"
  INDEX 01 2913:30:04
TRACK 338 AUDIO
  TITLE "Chapter 337"
  INDEX 01 2924:39:43
TRACK 339 AUDIO
  TITLE "Chapter 338"
  INDEX 01 2940:16:13
TRACK 340 AUDIO
  TITLE "Chapter 339"
  INDEX 01 2950:14:49
TRACK 341 AUDIO
  TITLE "Chapter 340"
  INDEX 01 2957:51:46
TRACK 342 AUDIO
  TITLE "Chapter 341"
  INDEX 01 2970:38:60
TRACK 343 AUDIO
  TITLE "End Credits"
  INDEX 01 2980:19:51
